<svg width="19" height="19" viewBox="0 0 19 19" fill="none" xmlns="http://www.w3.org/2000/svg">
<path d="M6.37789 6.32014C5.34947 7.194 4.9726 8.78768 5.86061 10.0662C6.69159 11.2626 7.73834 12.3091 8.93449 13.1398C10.2131 14.0276 11.8067 13.6506 12.6804 12.6222L12.6902 12.6267C13.8062 13.1436 14.9916 13.498 16.2083 13.6786V16.2083L16.2073 16.2083L16.2046 16.2083C8.56228 16.2192 2.7835 10.3732 2.79168 2.79511V2.79167H5.32106L5.32123 2.79279C5.50183 4.00937 5.85604 5.19377 6.37309 6.30978L6.37789 6.32014ZM16.2073 18.125H17.1667C17.6959 18.125 18.125 17.6959 18.125 17.1667V12.852C18.125 12.377 17.7771 11.9738 17.3074 11.904L16.4888 11.7825C15.4534 11.6289 14.4455 11.3275 13.4958 10.8875L12.7743 10.5533C12.3562 10.3596 11.8594 10.4909 11.5916 10.8659L11.265 11.3232C10.9788 11.7239 10.4322 11.8463 10.0277 11.5654C9.01925 10.8652 8.1354 9.98149 7.43481 8.97282C7.15382 8.56825 7.27624 8.02165 7.67709 7.73539L8.13416 7.40898C8.50917 7.14117 8.64048 6.64437 8.44676 6.22624L8.11218 5.50407C7.67221 4.55442 7.3708 3.54659 7.21712 2.51134L7.09558 1.69261C7.02584 1.22284 6.62256 0.875 6.14763 0.875H1.83334C1.30407 0.875 0.87501 1.30406 0.87501 1.83333V2.79304C0.865695 11.4242 7.49731 18.1373 16.2073 18.125Z" fill="#009DE0"/>
</svg>
