<svg width="18" height="22" viewBox="0 0 18 22" fill="none" xmlns="http://www.w3.org/2000/svg">
<path d="M8.99968 21.4999C7.5261 20.243 6.16023 18.865 4.91634 17.3804C3.04968 15.1509 0.833009 11.8306 0.833009 8.6666C0.831354 5.36207 2.8213 2.38223 5.87426 1.11757C8.92721 -0.147092 12.4414 0.552717 14.777 2.89044C16.3129 4.41948 17.1732 6.49939 17.1664 8.6666C17.1664 11.8306 14.9497 15.1509 13.083 17.3804C11.8391 18.865 10.4733 20.243 8.99968 21.4999ZM8.99968 2.83327C5.77961 2.83713 3.1702 5.44654 3.16634 8.6666C3.16634 10.0269 3.78118 12.3824 6.70718 15.8836C7.42834 16.7447 8.19353 17.5679 8.99968 18.3499C9.80589 17.5688 10.5715 16.7468 11.2933 15.8871C14.2182 12.3813 14.833 10.0258 14.833 8.6666C14.8292 5.44654 12.2197 2.83713 8.99968 2.83327ZM8.99968 12.1666C7.06668 12.1666 5.49968 10.5996 5.49968 8.6666C5.49968 6.73361 7.06668 5.1666 8.99968 5.1666C10.9327 5.1666 12.4997 6.73361 12.4997 8.6666C12.4997 9.59486 12.1309 10.4851 11.4746 11.1415C10.8182 11.7979 9.92793 12.1666 8.99968 12.1666Z" fill="#009DE0"/>
</svg>
