<svg width="17" height="20" viewBox="0 0 17 20" fill="none" xmlns="http://www.w3.org/2000/svg">
<path d="M3.70801 5.66667C3.70801 3.0203 5.85331 0.875 8.49967 0.875C11.146 0.875 13.2913 3.0203 13.2913 5.66667C13.2913 8.31303 11.146 10.4583 8.49967 10.4583C5.85331 10.4583 3.70801 8.31303 3.70801 5.66667ZM8.49967 8.54167C10.0875 8.54167 11.3747 7.25449 11.3747 5.66667C11.3747 4.07885 10.0875 2.79167 8.49967 2.79167C6.91186 2.79167 5.62467 4.07885 5.62467 5.66667C5.62467 7.25449 6.91186 8.54167 8.49967 8.54167Z" fill="#009DE0"/>
<path d="M3.07852 13.6622C1.64074 15.1 0.833008 17.05 0.833008 19.0833H2.74967C2.74967 17.5583 3.35548 16.0958 4.43381 15.0175C5.51214 13.9391 6.97468 13.3333 8.49967 13.3333C10.0247 13.3333 11.4872 13.9391 12.5655 15.0175C13.6439 16.0958 14.2497 17.5583 14.2497 19.0833H16.1663C16.1663 17.05 15.3586 15.1 13.9208 13.6622C12.483 12.2244 10.533 11.4167 8.49967 11.4167C6.46635 11.4167 4.5163 12.2244 3.07852 13.6622Z" fill="#009DE0"/>
</svg>
