<svg width="200" height="43" viewBox="0 0 200 43" fill="none" xmlns="http://www.w3.org/2000/svg">
<path d="M2.58887 36.5321L8.94181 31.238L18.9418 7.35566L17.4124 3.12036L2.58887 36.5321Z" fill="#009DE0"/>
<path d="M22.3525 0.885254H25.9996L33.7643 18.4147L29.882 19.1205L22.3525 0.885254Z" fill="#009DE0"/>
<path d="M18.9414 7.35596L20.8238 12.0618L13.1767 30.6501L14.2355 26.8854L8.94141 31.2383L18.9414 7.35596Z" fill="#386539"/>
<path d="M0 42.4149L8.70588 35.8266L8.11765 38.0619L24.2353 33.0031L21.7647 25.709L26.3529 28.2972L29.0588 35.4737L6.11765 39.709L6.94118 37.8266L0 42.4149Z" fill="#CB4F24"/>
<path d="M21.7646 25.7088L26.3529 28.297L29.5294 27.7088L31.9999 23.9441L21.7646 25.7088Z" fill="#DC911B"/>
<path d="M40.2352 42.4147H35.8822L29.5293 27.7088L31.9999 23.9441L40.2352 42.4147Z" fill="#CB4F24"/>
<path d="M34.5882 20.1792L17.1765 23.1204L19.6471 30.6498L10.2353 34.8851L10.9412 32.2969L0 42.4145L8.70588 35.8263L8.11765 38.0616L24.2353 33.0027L21.7647 25.7086L32 23.9439L40.2353 42.4145H44.3529L34.5882 20.1792Z" fill="#E7B141"/>
<path d="M29.8829 19.1205L22.3535 0.885254H18.3535L24.4712 16.0617L20.8241 16.5323L19.0594 21.0029L26.0006 19.8264L29.8829 19.1205Z" fill="#386539"/>
<path d="M77.1459 29.0565H68.4265L66.957 25.6275H71.8555L69.2103 19.6514L64.9976 29.0565H61.1768L67.7407 14.165H70.4839L77.1459 29.0565Z" fill="#1A2434"/>
<path d="M92.4293 25.6275H93.8988V29.0565H77.9297V25.6275H79.3992L84.5916 14.165H87.3348L92.4293 25.6275ZM83.318 25.6275H88.6084L85.9632 19.6514L83.318 25.6275Z" fill="#1A2434"/>
<path d="M108.692 18.7696C108.692 20.0432 108.202 21.1209 107.32 22.0026C106.439 22.8844 105.361 23.3742 104.087 23.3742H98.6991L100.169 19.9453H104.087C104.381 19.9453 104.675 19.8473 104.871 19.6514C105.067 19.4554 105.165 19.1615 105.165 18.8676C105.165 18.5737 105.067 18.2798 104.871 18.0838C104.675 17.8879 104.381 17.7899 104.087 17.7899H98.2092V29.2524H94.7803V14.165H104.087C105.361 14.165 106.439 14.6549 107.32 15.5366C108.202 16.4184 108.692 17.496 108.692 18.7696Z" fill="#1A2434"/>
<path d="M122.31 29.0565H109.574V14.165H122.31V17.594H112.905V19.9453H120.155V23.3742H112.905V25.7255H122.31V29.0565Z" fill="#1A2434"/>
<path d="M126.524 29.0565H123.095V14.165H126.524V29.0565ZM137.006 29.0565H133.578V23.2763H127.014L128.483 19.8473H133.578V14.165H137.006V29.0565Z" fill="#1A2434"/>
<path d="M153.758 29.0565H145.039L143.569 25.6275H148.467L145.822 19.6514L141.708 29.0565H137.887L144.451 14.165H147.194L153.758 29.0565Z" fill="#1A2434"/>
<path d="M166.789 29.0565L162.674 19.6514L158.559 29.0565H154.738L161.302 14.165H164.045L170.609 29.0565H166.789Z" fill="#1A2434"/>
<path d="M171.491 14.165H174.92V22.5905L181.974 14.165H185.403V29.0565H181.974V20.6311L174.92 29.0565H171.491V14.165Z" fill="#1A2434"/>
<path d="M189.615 29.0565H186.187V14.165H189.615V29.0565ZM200 29.0565H196.571V23.2763H190.007L191.477 19.8473H196.571V14.165H200V29.0565Z" fill="#1A2434"/>
</svg>
