<svg width="18" height="15" viewBox="0 0 18 15" fill="none" xmlns="http://www.w3.org/2000/svg">
<path d="M12.275 7.505C11.615 7.235 11.105 6.8 10.745 6.2C10.355 5.63 10.16 4.94 10.16 4.13C10.16 3.05 10.505 2.165 11.195 1.475C11.885 0.785 12.74 0.44 13.76 0.44C14.84 0.44 15.725 0.785 16.415 1.475C17.105 2.165 17.45 3.05 17.45 4.13C17.45 4.67 17.39 5.195 17.27 5.705C17.12 6.215 16.85 6.98 16.46 8L14.075 14.39L10.475 14.39L12.275 7.505ZM2.735 7.505C2.075 7.235 1.565 6.8 1.205 6.2C0.814999 5.63 0.619999 4.94 0.619999 4.13C0.619999 3.05 0.964999 2.165 1.655 1.475C2.345 0.784999 3.2 0.439999 4.22 0.439999C5.3 0.439999 6.185 0.784999 6.875 1.475C7.565 2.165 7.91 3.05 7.91 4.13C7.91 4.67 7.85 5.195 7.73 5.705C7.58 6.215 7.31 6.98 6.92 8L4.535 14.39L0.934999 14.39L2.735 7.505Z" fill="#1A2434"/>
</svg>
