<svg width="200" height="42" viewBox="0 0 200 42" fill="none" xmlns="http://www.w3.org/2000/svg">
<path d="M2.58887 35.6469L8.94181 30.3528L18.9418 6.4704L17.4124 2.23511L2.58887 35.6469Z" fill="#009DE0"/>
<path d="M22.3525 0H25.9996L33.7643 17.5294L29.882 18.2353L22.3525 0Z" fill="#009DE0"/>
<path d="M18.9414 6.4707L20.8238 11.1766L13.1767 29.7648L14.2355 26.0001L8.94141 30.3531L18.9414 6.4707Z" fill="#386539"/>
<path d="M0 41.5296L8.70588 34.9414L8.11765 37.1767L24.2353 32.1178L21.7647 24.8237L26.3529 27.412L29.0588 34.5884L6.11765 38.8237L6.94118 36.9414L0 41.5296Z" fill="#CB4F24"/>
<path d="M21.7646 24.8238L26.3529 27.412L29.5294 26.8238L31.9999 23.0591L21.7646 24.8238Z" fill="#DC911B"/>
<path d="M40.2352 41.5297H35.8822L29.5293 26.8238L31.9999 23.0591L40.2352 41.5297Z" fill="#CB4F24"/>
<path d="M34.5882 19.2939L17.1765 22.2351L19.6471 29.7645L10.2353 33.9998L10.9412 31.4116L0 41.5292L8.70588 34.941L8.11765 37.1763L24.2353 32.1175L21.7647 24.8234L32 23.0587L40.2353 41.5292H44.3529L34.5882 19.2939Z" fill="#E7B141"/>
<path d="M29.8829 18.2353L22.3535 0H18.3535L24.4712 15.1765L20.8241 15.6471L19.0594 20.1176L26.0006 18.9412L29.8829 18.2353Z" fill="#386539"/>
<path d="M77.1459 28.1712H68.4265L66.957 24.7423H71.8555L69.2103 18.7661L64.9976 28.1712H61.1768L67.7407 13.2798H70.4839L77.1459 28.1712Z" fill="white"/>
<path d="M92.4293 24.7423H93.8988V28.1712H77.9297V24.7423H79.3992L84.5916 13.2798H87.3348L92.4293 24.7423ZM83.318 24.7423H88.6084L85.9632 18.7661L83.318 24.7423Z" fill="white"/>
<path d="M108.692 17.8844C108.692 19.158 108.202 20.2357 107.32 21.1174C106.439 21.9991 105.361 22.489 104.087 22.489H98.6991L100.169 19.06H104.087C104.381 19.06 104.675 18.962 104.871 18.7661C105.067 18.5702 105.165 18.2763 105.165 17.9823C105.165 17.6884 105.067 17.3945 104.871 17.1986C104.675 17.0026 104.381 16.9047 104.087 16.9047H98.2092V28.3672H94.7803V13.2798H104.087C105.361 13.2798 106.439 13.7696 107.32 14.6514C108.202 15.5331 108.692 16.6108 108.692 17.8844Z" fill="white"/>
<path d="M122.31 28.1712H109.574V13.2798H122.31V16.7087H112.905V19.06H120.155V22.489H112.905V24.8403H122.31V28.1712Z" fill="white"/>
<path d="M126.524 28.1712H123.095V13.2798H126.524V28.1712ZM137.006 28.1712H133.578V22.391H127.014L128.483 18.962H133.578V13.2798H137.006V28.1712Z" fill="white"/>
<path d="M153.758 28.1712H145.039L143.569 24.7423H148.467L145.822 18.7661L141.708 28.1712H137.887L144.451 13.2798H147.194L153.758 28.1712Z" fill="white"/>
<path d="M166.789 28.1712L162.674 18.7661L158.559 28.1712H154.738L161.302 13.2798H164.045L170.609 28.1712H166.789Z" fill="white"/>
<path d="M171.491 13.2798H174.92V21.7052L181.974 13.2798H185.403V28.1712H181.974V19.7458L174.92 28.1712H171.491V13.2798Z" fill="white"/>
<path d="M189.615 28.1712H186.187V13.2798H189.615V28.1712ZM200 28.1712H196.571V22.391H190.007L191.477 18.962H196.571V13.2798H200V28.1712Z" fill="white"/>
</svg>
